<?xml version="1.0" encoding="utf-8"?>
<!-- Generator: Adobe Illustrator 19.0.0, SVG Export Plug-In . SVG Version: 6.00 Build 0)  -->
<svg version="1.1" id="Vrstva_1" xmlns="http://www.w3.org/2000/svg" xmlns:xlink="http://www.w3.org/1999/xlink" x="0px" y="0px"
	 viewBox="0 0 1080 1080" style="enable-background:new 0 0 1080 1080;" xml:space="preserve">
<style type="text/css">
	.st0{fill-rule:evenodd;clip-rule:evenodd;fill:#FFFFFF;}
	.st1{fill:#FFFFFF;}
</style>
<g id="XMLID_18_">
	<g id="XMLID_4_">
		<path id="XMLID_26_" class="st0" d="M736.1,523.6c0-2.1,0-8.6,0-8.6s-5.4,2.7-7.7,3.9L666,550.7c-4.2,2.2-7.7,0-7.7-4.7l0-169.2
			c0-4.8,3.5-10.4,7.7-12.6l116.5-59.6c4.2-2.2,7.7,0,7.7,4.7v43.5c0,4.8-3.5,10.4-7.7,12.6l-62.4,31.8c-2.2,1.1-7.7,3.9-7.7,3.9
			s0,6.4,0,8.6v47.8c0,2.3,0,8.6,0,8.6s5.5-2.8,7.7-3.9l62.4-31.8c4.2-2.2,7.7,0,7.7,4.7V596c0,4.8-3.5,10.4-7.7,12.6L212.9,899.1
			c-4.2,2.2-7.7,0-7.7-4.7v-43.6c0-4.8,3.5-10.4,7.7-12.6l515.5-262.9c2.2-1.1,7.7-3.9,7.7-3.9s0-6.3,0-8.6V523.6z"/>
	</g>
	<g id="XMLID_23_">
		<path id="XMLID_24_" class="st0" d="M621.6,600.8c0,4.8-3.5,10.4-7.7,12.6l-38.8,19.7c-4.2,2.2-7.7,0-7.7-4.7V422.9
			c0-4.8,3.5-10.4,7.7-12.6l38.8-19.7c4.2-2.2,7.7,0,7.7,4.7V600.8z"/>
	</g>
	<g id="XMLID_21_">
		<path id="XMLID_22_" class="st0" d="M467.5,627l62.4-31.7c4.2-2.2,7.7,0,7.7,4.7l0,43.5c0,4.8-3.5,10.4-7.7,12.6L421,711.5
			c-4.2,2.2-7.7,0-7.7-4.7V501.4c0-4.8,3.5-10.4,7.7-12.6l38.8-19.6c4.2-2.1,7.7,0,7.7,4.7L467.5,627z"/>
	</g>
	<g id="XMLID_19_">
		<path id="XMLID_20_" class="st0" d="M315.3,522.5L248,556.7c-4.2,2.2-7.7,0-7.7-4.7v-43.5c0-4.8,3.5-10.4,7.7-12.6l619-315.1
			c4.2-2.2,7.7,0,7.7,4.7v43.5c0,4.8-3.6,10.2-7.9,12.4L369.5,494.9v234.5c0,4.8-3.6,10.4-7.8,12.5l-38.8,19.8
			c-4.2,2.2-7.6,0-7.5-4.7L315.3,522.5z"/>
	</g>
</g>
</svg>
