<?xml version="1.0" encoding="utf-8"?>
<!-- Generator: Adobe Illustrator 19.0.0, SVG Export Plug-In . SVG Version: 6.00 Build 0)  -->
<svg version="1.1" id="Vrstva_1" xmlns="http://www.w3.org/2000/svg" xmlns:xlink="http://www.w3.org/1999/xlink" x="0px" y="0px"
	 viewBox="0 0 1080 1080" style="enable-background:new 0 0 1080 1080;" xml:space="preserve">
<style type="text/css">
	.st0{fill-rule:evenodd;clip-rule:evenodd;fill:#FFFFFF;}
	.st1{fill:#FFFFFF;}
</style>
<g id="XMLID_18_">
	<g id="XMLID_4_">
		<path id="XMLID_26_" class="st0" d="M736.1,523.6c0-2.1,0-8.6,0-8.6s-5.4,2.7-7.7,3.9L666,550.7c-4.2,2.2-7.7,0-7.7-4.7l0-169.2
			c0-4.8,3.5-10.4,7.7-12.6l116.5-59.6c4.2-2.2,7.7,0,7.7,4.7v43.5c0,4.8-3.5,10.4-7.7,12.6l-62.4,31.8c-2.2,1.1-7.7,3.9-7.7,3.9
			s0,6.4,0,8.6v47.8c0,2.3,0,8.6,0,8.6s5.5-2.8,7.7-3.9l62.4-31.8c4.2-2.2,7.7,0,7.7,4.7V596c0,4.8-3.5,10.4-7.7,12.6L212.9,899.1
			c-4.2,2.2-7.7,0-7.7-4.7v-43.6c0-4.8,3.5-10.4,7.7-12.6l515.5-262.9c2.2-1.1,7.7-3.9,7.7-3.9s0-6.3,0-8.6V523.6z"/>
	</g>
	<g id="XMLID_23_">
		<path id="XMLID_24_" class="st0" d="M621.6,600.8c0,4.8-3.5,10.4-7.7,12.6l-38.8,19.7c-4.2,2.2-7.7,0-7.7-4.7V422.9
			c0-4.8,3.5-10.4,7.7-12.6l38.8-19.7c4.2-2.2,7.7,0,7.7,4.7V600.8z"/>
	</g>
	<g id="XMLID_21_">
		<path id="XMLID_22_" class="st0" d="M467.5,627l62.4-31.7c4.2-2.2,7.7,0,7.7,4.7l0,43.5c0,4.8-3.5,10.4-7.7,12.6L421,711.5
			c-4.2,2.2-7.7,0-7.7-4.7V501.4c0-4.8,3.5-10.4,7.7-12.6l38.8-19.6c4.2-2.1,7.7,0,7.7,4.7L467.5,627z"/>
	</g>
	<g id="XMLID_19_">
		<path id="XMLID_20_" class="st0" d="M315.3,522.5L248,556.7c-4.2,2.2-7.7,0-7.7-4.7v-43.5c0-4.8,3.5-10.4,7.7-12.6l619-315.1
			c4.2-2.2,7.7,0,7.7,4.7v43.5c0,4.8-3.6,10.2-7.9,12.4L369.5,494.9v234.5c0,4.8-3.6,10.4-7.8,12.5l-38.8,19.8
			c-4.2,2.2-7.6,0-7.5-4.7L315.3,522.5z"/>
	</g>
	<g id="XMLID_13_">
		<path id="XMLID_14_" class="st1" d="M466.3,828.7l-2.7,1.4l-8.9-8.3c-1,0.6-2,1.3-3.2,1.8l-11.1,5.6v12.6l-2.3,1.2v-37.7l13.3-6.8
			c3.4-1.8,6.2-2.7,8.4-2.7c2.2-0.1,3.7,0.6,4.7,2c1,1.4,1.5,3.3,1.5,5.7c0,6.4-3.1,12-9.3,16.9L466.3,828.7z M451.6,821.5
			c2.3-1.2,4.3-2.5,6.2-4.1c1.9-1.6,3.4-3.4,4.5-5.5s1.7-4.5,1.7-7.2c0-6.7-4.1-8-12.4-3.8l-11.1,5.7v20.6L451.6,821.5z"/>
		<path id="XMLID_17_" class="st1" d="M515.4,803.7L513,805l-4.9-8.2L486,808l-4.9,13.2l-2.5,1.3l17.1-46.5l2.4-1.2L515.4,803.7z
			 M507,795l-10.1-17l-10,27.2L507,795z"/>
		<path id="XMLID_28_" class="st1" d="M545,788.7l-15.2,7.7v-37.7l15.3-7.8c3.8-1.9,7.2-2.8,10-2.5c3,0.4,5.2,1.6,6.8,3.6
			c1.5,2,2.3,4.6,2.3,7.8c-0.1,4.1-1,7.9-2.7,11.5c-1.7,3.6-4,6.9-6.8,10S548.6,786.8,545,788.7z M544.8,786.5
			c4.7-2.4,8.7-6.1,12.1-11c3.3-5,5-9.7,5-14.3c0-4.6-1.7-7.7-5-9.3c-3.3-1.5-7.4-1.1-12.1,1.3l-12.7,6.5V793L544.8,786.5z"/>
		<path id="XMLID_31_" class="st1" d="M582.9,769.4l-2.3,1.2v-37.7l2.3-1.2V769.4z"/>
		<path id="XMLID_33_" class="st1" d="M618.9,751c-4,2.1-7.5,2.9-10.4,2.6c-2.9-0.3-5.2-1.4-6.9-3.3c-1.7-1.9-2.5-4.7-2.5-8.5
			c0-3.7,0.9-7.5,2.8-11.2c2-3.9,4.5-7.4,7.5-10.4c3-3,6-5.3,9.1-6.8c4.3-2.2,7.9-3.1,10.8-2.7c2.9,0.4,5.2,1.6,6.7,3.7
			c1.5,2.1,2.3,4.6,2.3,7.6c-0.1,4.2-1.1,8.2-2.9,11.8c-1.8,3.6-4.1,6.9-6.9,9.8C625.5,746.8,622.4,749.3,618.9,751z M618.7,748.9
			c4.7-2.4,8.8-6.1,12.2-11.1c3.4-5,5.1-9.8,5.1-14.4c0-4.6-1.7-7.6-5.1-9.2c-3.4-1.5-7.4-1.1-12.2,1.3c-4.7,2.4-8.7,6.1-12.1,11.1
			c-3.4,5-5.1,9.8-5.1,14.4c0,4.6,1.7,7.7,5.1,9.2C610,751.7,614,751.3,618.7,748.9z"/>
	</g>
</g>
</svg>
